# xmcd
#
# Track frame offsets: 
#        150
#        20931
#        43647
#        65135
#        83638
#        104976
#        119919
#        141320
#        160871
#
# Disc length: 2485 seconds
#
# Revision: 0
# Processed by: cddbd v1.5.2PL0 Copyright (c) Steve Scherf et al.
# Submitted via: ExactAudioCopy v1.0b3
#
DISCID=8d09b309
DTITLE=群星 - DTS ES 正品 树精选
DYEAR=2010
DGENRE=DTS ES
TTITLE0=卡萨布兰卡
TTITLE1=加州旅馆
TTITLE2=那一夜
TTITLE3=大河之舞
TTITLE4=烟火人间
TTITLE5=迟到
TTITLE6=归来的马
TTITLE7=非洲与中国鼓
TTITLE8=有没有人告诉你
EXTD=
EXTT0=
EXTT1=
EXTT2=
EXTT3=
EXTT4=
EXTT5=
EXTT6=
EXTT7=
EXTT8=
PLAYORDER=
